<svg width="40" height="40" viewBox="0 0 40 40" fill="none" xmlns="http://www.w3.org/2000/svg">
<path fill-rule="evenodd" clip-rule="evenodd" d="M24.0801 1.67903L38.3203 15.9046C40.5599 18.1433 40.5599 21.7788 38.3203 24.0175L24.0801 38.3226C21.8405 40.5591 18.1993 40.5591 15.9597 38.3226L1.6797 24.0572C-0.559901 21.8185 -0.559901 18.1831 1.6797 15.9444L15.9597 1.67903C18.1993 -0.559676 21.8405 -0.559676 24.0801 1.67903ZM19.0792 5.27466L19.0394 5.31444L5.35857 18.9809C4.79923 19.54 4.79923 20.3798 5.31878 20.939L5.35857 20.9787L18.9996 34.6055C19.5589 35.1646 20.3991 35.1646 20.9606 34.6452L21.0004 34.6055L34.6414 20.9787C35.2008 20.4196 35.2008 19.5003 34.6414 18.9411L21.0402 5.35422C20.5207 4.79509 19.6407 4.79509 19.0792 5.27466ZM20.2797 11.3079L28.7207 19.7389C28.8799 19.8981 28.8799 20.0992 28.7207 20.2583L20.2797 28.6893C20.1205 28.8485 19.9193 28.8485 19.7601 28.6893L11.3191 20.2583C11.1599 20.0992 11.1599 19.8981 11.3191 19.7389L19.7601 11.3079C19.9193 11.1488 20.1205 11.1488 20.2797 11.3079Z" fill="#321E4C"/>
</svg>